<svg width="142" height="74" viewBox="0 0 142 74" fill="none" xmlns="http://www.w3.org/2000/svg">
<path d="M0 9C0 4.02944 4.02944 0 9 0H133C137.971 0 142 4.02944 142 9V50C142 54.9706 137.971 59 133 59H106.5H91.974C89.8895 59 87.8697 59.7236 86.2593 61.0471L76.3784 69.1684C72.9846 71.9578 68.073 71.8896 64.7581 69.007L55.7898 61.2086C54.152 59.7844 52.0547 59 49.8842 59H35.5H9C4.02944 59 0 54.9706 0 50V9Z" fill="#E6E6E6"/>
<path d="M66.3075 23.1503L70.1102 15.7351C70.4819 15.0102 71.5181 15.0102 71.8898 15.7351L75.6925 23.1503C75.8375 23.4331 76.1082 23.6301 76.4219 23.6811L84.9484 25.0666C85.7757 25.2011 86.0805 26.2325 85.4592 26.795L78.8185 32.8072C78.5505 33.0498 78.4343 33.4182 78.5147 33.7707L80.382 41.9637C80.5687 42.7826 79.7238 43.4529 78.9688 43.0848L71.4382 39.4136C71.1616 39.2788 70.8384 39.2788 70.5618 39.4136L63.0312 43.0848C62.2762 43.4529 61.4313 42.7826 61.618 41.9637L63.4853 33.7707C63.5657 33.4182 63.4495 33.0498 63.1815 32.8072L56.5408 26.795C55.9195 26.2325 56.2243 25.2011 57.0516 25.0666L65.5781 23.6811C65.8918 23.6301 66.1625 23.4331 66.3075 23.1503Z" fill="#CDCDCD"/>
<path d="M26.3075 23.1503L30.1102 15.7351C30.4819 15.0102 31.5181 15.0102 31.8898 15.7351L35.6925 23.1503C35.8375 23.4331 36.1082 23.6301 36.4219 23.6811L44.9484 25.0666C45.7757 25.2011 46.0805 26.2325 45.4592 26.795L38.8185 32.8072C38.5505 33.0498 38.4343 33.4182 38.5147 33.7707L40.382 41.9637C40.5687 42.7826 39.7238 43.4529 38.9688 43.0848L31.4382 39.4136C31.1616 39.2788 30.8384 39.2788 30.5618 39.4136L23.0312 43.0848C22.2762 43.4529 21.4313 42.7826 21.618 41.9637L23.4853 33.7707C23.5657 33.4182 23.4495 33.0498 23.1815 32.8072L16.5408 26.795C15.9195 26.2325 16.2243 25.2011 17.0516 25.0666L25.5781 23.6811C25.8918 23.6301 26.1625 23.4331 26.3075 23.1503Z" fill="#CDCDCD"/>
<path d="M106.308 23.1503L110.11 15.7351C110.482 15.0102 111.518 15.0102 111.89 15.7351L115.692 23.1503C115.837 23.4331 116.108 23.6301 116.422 23.6811L124.948 25.0666C125.776 25.2011 126.081 26.2325 125.459 26.795L118.819 32.8072C118.551 33.0498 118.434 33.4182 118.515 33.7707L120.382 41.9637C120.569 42.7826 119.724 43.4529 118.969 43.0848L111.438 39.4136C111.162 39.2788 110.838 39.2788 110.562 39.4136L103.031 43.0848C102.276 43.4529 101.431 42.7826 101.618 41.9637L103.485 33.7707C103.566 33.4182 103.449 33.0498 103.181 32.8072L96.5408 26.795C95.9195 26.2325 96.2243 25.2011 97.0516 25.0666L105.578 23.6811C105.892 23.6301 106.163 23.4331 106.308 23.1503Z" fill="#CDCDCD"/>
</svg>
